<?xml version="1.0" encoding="utf-8"?>
<!-- Generator: Adobe Illustrator 17.0.0, SVG Export Plug-In . SVG Version: 6.00 Build 0)  -->
<!DOCTYPE svg PUBLIC "-//W3C//DTD SVG 1.1//EN" "http://www.w3.org/Graphics/SVG/1.1/DTD/svg11.dtd">
<svg version="1.1" id="Layer_1" xmlns="http://www.w3.org/2000/svg" xmlns:xlink="http://www.w3.org/1999/xlink" x="0px" y="0px"
	 width="441.928px" height="139.358px" viewBox="3.527 27.378 441.928 139.358"
	 enable-background="new 3.527 27.378 441.928 139.358" xml:space="preserve">
<g>
	<path fill="#002A36" d="M17.264,125.452c-0.714,0-1.314,0.151-1.799,0.454c-0.486,0.302-0.875,0.724-1.168,1.264
		s-0.499,1.182-0.618,1.923c-0.119,0.742-0.178,1.553-0.178,2.432c-2.528,0-4.428-0.284-5.701-0.852s-1.909-1.539-1.909-2.912
		c0-1.026,0.306-1.905,0.92-2.638c0.613-0.732,1.446-1.328,2.5-1.786c1.053-0.457,2.28-0.792,3.682-1.003
		c1.401-0.21,2.898-0.315,4.492-0.315c1.979,0,3.705,0.169,5.179,0.508c1.474,0.339,2.702,0.884,3.682,1.635
		c0.979,0.751,1.717,1.735,2.211,2.953c0.495,1.219,0.742,2.707,0.742,4.465v14.342c0,0.77,0.06,1.411,0.179,1.923
		c0.119,0.514,0.307,0.921,0.563,1.223c0.256,0.303,0.604,0.518,1.044,0.646c0.439,0.129,0.971,0.192,1.593,0.192h0.22v2.995H22.43
		l-1.182-3.874h-0.495c-0.623,0.751-1.208,1.406-1.758,1.965c-0.549,0.559-1.136,1.021-1.758,1.387
		c-0.623,0.367-1.323,0.637-2.102,0.811c-0.779,0.174-1.699,0.262-2.761,0.262c-1.246,0-2.404-0.184-3.476-0.55
		s-2.006-0.93-2.802-1.689c-0.797-0.76-1.425-1.713-1.882-2.857c-0.458-1.145-0.687-2.495-0.687-4.053
		c0-3.059,1.048-5.32,3.146-6.786c2.097-1.465,5.252-2.262,9.465-2.391l4.616-0.164v-3.104c0-0.935-0.037-1.795-0.11-2.583
		c-0.073-0.787-0.229-1.465-0.467-2.033c-0.238-0.567-0.591-1.007-1.058-1.318C18.652,125.608,18.034,125.452,17.264,125.452z
		 M12.264,144.52c0,1.612,0.256,2.821,0.769,3.627s1.319,1.209,2.418,1.209c0.806,0,1.534-0.169,2.184-0.509
		c0.65-0.339,1.209-0.819,1.676-1.442c0.467-0.622,0.824-1.378,1.072-2.267c0.247-0.888,0.371-1.882,0.371-2.98v-4.231l-2.527,0.165
		c-1.118,0.055-2.061,0.233-2.83,0.536c-0.769,0.302-1.383,0.719-1.841,1.25c-0.458,0.531-0.788,1.181-0.989,1.95
		C12.365,142.597,12.264,143.494,12.264,144.52z"/>
</g>
<g>
	<path fill="#002A36" d="M45.678,153.449c-2.07,0-3.961-0.266-5.674-0.797c-1.713-0.531-3.183-1.41-4.41-2.638
		c-1.227-1.227-2.18-2.83-2.857-4.808c-0.678-1.979-1.017-4.405-1.017-7.281c0-3.04,0.352-5.577,1.058-7.61
		c0.705-2.033,1.676-3.663,2.912-4.891c1.236-1.227,2.697-2.102,4.382-2.623c1.685-0.522,3.498-0.783,5.44-0.783
		c1.813,0,3.416,0.15,4.808,0.453c1.392,0.302,2.555,0.719,3.489,1.25s1.644,1.158,2.129,1.882s0.729,1.497,0.729,2.321
		c0,0.604-0.106,1.195-0.316,1.772s-0.586,1.085-1.126,1.524c-0.54,0.44-1.282,0.797-2.225,1.072
		c-0.944,0.274-2.148,0.412-3.613,0.412c0-0.971-0.06-1.896-0.179-2.775s-0.316-1.648-0.591-2.308s-0.646-1.186-1.113-1.58
		s-1.058-0.591-1.772-0.591c-0.824,0-1.562,0.197-2.211,0.591c-0.65,0.395-1.209,1.067-1.676,2.02s-0.824,2.226-1.071,3.819
		c-0.248,1.593-0.371,3.59-0.371,5.989c0,3.81,0.522,6.658,1.566,8.544c1.044,1.887,2.748,2.83,5.11,2.83
		c0.971,0,1.882-0.114,2.734-0.343s1.625-0.55,2.321-0.962s1.305-0.897,1.827-1.456s0.948-1.158,1.278-1.8
		c0.458,0.274,0.796,0.646,1.017,1.112c0.22,0.468,0.33,0.958,0.33,1.471c0,0.714-0.211,1.438-0.632,2.17
		c-0.422,0.733-1.077,1.397-1.965,1.992c-0.888,0.596-2.019,1.081-3.393,1.456C49.222,153.261,47.583,153.449,45.678,153.449z"/>
</g>
<g>
	<path fill="#002A36" d="M71.617,125.452c-0.714,0-1.314,0.151-1.799,0.454c-0.486,0.302-0.875,0.724-1.168,1.264
		s-0.499,1.182-0.618,1.923c-0.119,0.742-0.178,1.553-0.178,2.432c-2.528,0-4.428-0.284-5.701-0.852s-1.909-1.539-1.909-2.912
		c0-1.026,0.306-1.905,0.92-2.638c0.613-0.732,1.446-1.328,2.5-1.786c1.053-0.457,2.28-0.792,3.682-1.003
		c1.401-0.21,2.898-0.315,4.492-0.315c1.979,0,3.705,0.169,5.179,0.508c1.474,0.339,2.702,0.884,3.682,1.635
		c0.979,0.751,1.717,1.735,2.211,2.953c0.495,1.219,0.742,2.707,0.742,4.465v14.342c0,0.77,0.06,1.411,0.179,1.923
		c0.119,0.514,0.307,0.921,0.563,1.223c0.256,0.303,0.604,0.518,1.044,0.646c0.439,0.129,0.971,0.192,1.593,0.192h0.22v2.995H76.783
		l-1.182-3.874h-0.495c-0.623,0.751-1.208,1.406-1.758,1.965c-0.549,0.559-1.136,1.021-1.758,1.387
		c-0.623,0.367-1.323,0.637-2.102,0.811c-0.779,0.174-1.699,0.262-2.761,0.262c-1.246,0-2.404-0.184-3.476-0.55
		c-1.072-0.366-2.006-0.93-2.802-1.689c-0.797-0.76-1.425-1.713-1.882-2.857c-0.458-1.145-0.687-2.495-0.687-4.053
		c0-3.059,1.048-5.32,3.146-6.786c2.097-1.465,5.252-2.262,9.465-2.391l4.616-0.164v-3.104c0-0.935-0.037-1.795-0.11-2.583
		c-0.073-0.787-0.229-1.465-0.467-2.033c-0.238-0.567-0.591-1.007-1.058-1.318C73.005,125.608,72.387,125.452,71.617,125.452z
		 M66.617,144.52c0,1.612,0.256,2.821,0.769,3.627s1.319,1.209,2.418,1.209c0.806,0,1.534-0.169,2.184-0.509
		c0.65-0.339,1.209-0.819,1.676-1.442c0.467-0.622,0.824-1.378,1.072-2.267c0.247-0.888,0.371-1.882,0.371-2.98v-4.231l-2.527,0.165
		c-1.118,0.055-2.061,0.233-2.83,0.536c-0.769,0.302-1.383,0.719-1.841,1.25s-0.788,1.181-0.989,1.95
		C66.718,142.597,66.617,143.494,66.617,144.52z"/>
	<path fill="#002A36" d="M114.494,145.976c0,0.861,0.128,1.548,0.385,2.061c0.256,0.514,0.6,0.907,1.03,1.182
		c0.43,0.274,0.925,0.458,1.483,0.55s1.149,0.137,1.772,0.137h0.22v2.995h-10.907l-1.566-4.396h-0.522
		c-0.421,0.769-0.902,1.456-1.442,2.061c-0.541,0.604-1.163,1.122-1.868,1.552c-0.706,0.431-1.498,0.761-2.376,0.989
		c-0.879,0.229-1.868,0.344-2.967,0.344c-1.832,0-3.462-0.308-4.891-0.921s-2.633-1.557-3.613-2.83
		c-0.98-1.272-1.722-2.889-2.226-4.849s-0.755-4.286-0.755-6.979c0-2.711,0.251-5.06,0.755-7.047s1.241-3.627,2.212-4.918
		c0.971-1.292,2.161-2.253,3.572-2.885c1.41-0.633,3.022-0.948,4.835-0.948c1.062,0,2.02,0.114,2.871,0.344
		c0.852,0.229,1.621,0.54,2.308,0.934c0.687,0.395,1.296,0.865,1.827,1.415s0.989,1.154,1.374,1.813h0.385
		c-0.073-1.044-0.146-2.023-0.22-2.939c-0.019-0.385-0.041-0.778-0.069-1.182c-0.027-0.403-0.055-0.783-0.082-1.141
		c-0.028-0.356-0.046-0.673-0.055-0.947c-0.009-0.275-0.014-0.495-0.014-0.66v-3.104c0-0.769-0.124-1.387-0.371-1.854
		c-0.247-0.467-0.577-0.819-0.989-1.058c-0.412-0.237-0.893-0.394-1.442-0.467c-0.55-0.073-1.136-0.11-1.758-0.11h-0.44v-2.967
		h13.545L114.494,145.976L114.494,145.976z M100.153,149.245c1.117,0,2.047-0.233,2.789-0.7c0.742-0.467,1.336-1.177,1.786-2.13
		c0.449-0.952,0.765-2.146,0.948-3.585c0.183-1.438,0.275-3.127,0.275-5.069c0-1.85-0.092-3.493-0.275-4.932
		c-0.183-1.438-0.499-2.646-0.948-3.626c-0.449-0.979-1.044-1.722-1.786-2.226c-0.742-0.504-1.672-0.756-2.789-0.756
		c-0.934,0-1.735,0.252-2.404,0.756s-1.209,1.25-1.621,2.239s-0.714,2.202-0.907,3.64c-0.192,1.438-0.288,3.091-0.288,4.96
		c0,3.828,0.398,6.689,1.195,8.585C96.925,148.298,98.266,149.245,100.153,149.245z"/>
</g>
<g>
	<path fill="#002A36" d="M131.55,153.449c-2.381,0-4.483-0.349-6.306-1.044c-1.823-0.696-3.348-1.704-4.574-3.022
		c-1.228-1.319-2.152-2.936-2.775-4.85c-0.623-1.913-0.934-4.098-0.934-6.553c0-2.637,0.311-4.954,0.934-6.95
		c0.623-1.997,1.529-3.663,2.72-5.001c1.19-1.337,2.651-2.34,4.382-3.008c1.731-0.669,3.704-1.003,5.921-1.003
		c2.033,0,3.864,0.288,5.495,0.865c1.63,0.577,3.013,1.434,4.148,2.568c1.136,1.137,2.006,2.547,2.61,4.231
		c0.604,1.686,0.907,3.646,0.907,5.88v2.885h-18.436c0.055,1.887,0.261,3.508,0.618,4.862c0.357,1.356,0.852,2.473,1.484,3.353
		c0.632,0.879,1.401,1.529,2.308,1.95c0.907,0.422,1.946,0.632,3.118,0.632c0.971,0,1.869-0.114,2.693-0.343
		c0.824-0.229,1.57-0.55,2.239-0.962s1.254-0.897,1.759-1.456c0.503-0.559,0.92-1.158,1.25-1.8c1.007,0.55,1.511,1.466,1.511,2.747
		c0,0.807-0.22,1.571-0.659,2.295s-1.117,1.359-2.033,1.909s-2.065,0.989-3.448,1.318
		C135.098,153.284,133.454,153.449,131.55,153.449z M131.028,125.672c-1.576,0-2.826,0.779-3.75,2.336
		c-0.925,1.557-1.433,3.837-1.525,6.841h9.726c0-1.429-0.083-2.71-0.247-3.847c-0.165-1.135-0.426-2.097-0.783-2.885
		c-0.357-0.787-0.815-1.392-1.374-1.812C132.515,125.883,131.833,125.672,131.028,125.672z"/>
</g>
<g>
	<path fill="#002A36" d="M165.512,152.899v-18.518c0-1.209-0.078-2.285-0.233-3.229c-0.156-0.943-0.412-1.735-0.769-2.376
		c-0.357-0.642-0.824-1.131-1.401-1.471c-0.577-0.338-1.277-0.508-2.102-0.508c-0.934,0-1.713,0.238-2.335,0.714
		c-0.623,0.477-1.122,1.113-1.498,1.91s-0.646,1.722-0.811,2.774c-0.165,1.054-0.247,2.157-0.247,3.311v10.743
		c0,0.787,0.096,1.419,0.289,1.896s0.462,0.848,0.811,1.112c0.348,0.266,0.773,0.439,1.277,0.522
		c0.503,0.082,1.067,0.123,1.69,0.123h0.165v2.995h-17.281v-2.995h0.11c0.641,0,1.227-0.041,1.758-0.123
		c0.531-0.083,0.994-0.261,1.388-0.536c0.394-0.274,0.7-0.668,0.92-1.182c0.22-0.512,0.33-1.19,0.33-2.032v-16.814
		c0-0.787-0.096-1.42-0.289-1.896c-0.192-0.477-0.467-0.848-0.824-1.113s-0.783-0.439-1.277-0.521
		c-0.495-0.083-1.054-0.124-1.676-0.124h-0.165v-2.83h11.814l0.742,4.012h0.275c0.567-1.062,1.167-1.905,1.799-2.528
		c0.632-0.622,1.305-1.099,2.02-1.429c0.714-0.329,1.47-0.54,2.267-0.632c0.797-0.091,1.635-0.137,2.514-0.137
		c2.07,0,3.837,0.37,5.303,1.112c1.465,0.742,2.537,1.946,3.214,3.613h0.495c0.567-1.062,1.186-1.905,1.854-2.528
		c0.668-0.622,1.383-1.099,2.143-1.429c0.76-0.329,1.557-0.54,2.39-0.632c0.833-0.091,1.69-0.137,2.569-0.137
		c1.447,0,2.748,0.211,3.901,0.632s2.129,1.071,2.926,1.95c0.796,0.88,1.405,2.002,1.827,3.366s0.632,2.999,0.632,4.904v13.05
		c0,0.879,0.078,1.58,0.233,2.102s0.389,0.921,0.701,1.195c0.311,0.274,0.705,0.458,1.181,0.55c0.476,0.092,1.026,0.137,1.648,0.137
		h0.165v2.995h-12.501v-18.518c0-2.418-0.334-4.286-1.003-5.604c-0.668-1.319-1.827-1.979-3.475-1.979
		c-0.879,0-1.631,0.216-2.253,0.646c-0.623,0.431-1.131,1.013-1.525,1.745s-0.683,1.589-0.866,2.568
		c-0.183,0.98-0.274,2.011-0.274,3.091v11.072c0,0.879,0.078,1.58,0.233,2.102s0.389,0.921,0.701,1.195
		c0.311,0.274,0.705,0.458,1.181,0.55c0.476,0.092,1.035,0.137,1.676,0.137h0.165v2.995h-12.502L165.512,152.899L165.512,152.899z"
		/>
</g>
<g>
	<path fill="#002A36" d="M224.369,122.732v2.995c-0.568,0-1.067,0.064-1.497,0.192c-0.431,0.128-0.82,0.353-1.168,0.673
		c-0.348,0.32-0.668,0.742-0.961,1.264s-0.586,1.177-0.879,1.965c-0.659,1.868-1.346,3.773-2.061,5.714
		c-0.714,1.942-1.433,3.888-2.157,5.839c-0.724,1.95-1.447,3.893-2.17,5.824c-0.724,1.933-1.424,3.833-2.102,5.701
		c-0.66,1.813-1.282,3.407-1.868,4.78c-0.586,1.374-1.205,2.564-1.855,3.572c-0.65,1.007-1.369,1.841-2.157,2.5
		s-1.703,1.186-2.747,1.58c-1.044,0.394-2.258,0.673-3.641,0.838c-1.383,0.164-3,0.247-4.849,0.247h-0.961v-3.27
		c1.959,0,3.626-0.238,5-0.715c1.374-0.477,2.537-1.153,3.489-2.032c0.952-0.88,1.735-1.934,2.349-3.16
		c0.614-1.228,1.149-2.582,1.607-4.066l-10.138-24.754c-0.22-0.531-0.467-0.952-0.742-1.264s-0.568-0.55-0.879-0.715
		s-0.65-0.27-1.016-0.315c-0.367-0.046-0.761-0.069-1.182-0.069v-3.324h16.045v2.995c-1.099,0-1.964,0.142-2.596,0.426
		s-0.948,0.838-0.948,1.662c0,0.312,0.064,0.683,0.192,1.112c0.128,0.431,0.247,0.783,0.357,1.058
		c0.33,0.788,0.673,1.645,1.03,2.569c0.357,0.925,0.705,1.851,1.044,2.774c0.339,0.926,0.664,1.818,0.976,2.68
		c0.311,0.86,0.586,1.62,0.824,2.28c0.274,0.714,0.503,1.359,0.687,1.937s0.334,1.099,0.454,1.566
		c0.119,0.467,0.215,0.897,0.289,1.291c0.073,0.394,0.128,0.783,0.165,1.168c0.037-0.385,0.11-0.811,0.22-1.278
		s0.229-0.915,0.357-1.346c0.128-0.431,0.256-0.814,0.385-1.154c0.128-0.339,0.22-0.581,0.274-0.728l3.709-11.018
		c0.073-0.183,0.142-0.398,0.206-0.646s0.124-0.499,0.179-0.756c0.055-0.256,0.096-0.503,0.124-0.741
		c0.028-0.238,0.042-0.439,0.042-0.604c0-0.861-0.357-1.452-1.072-1.772s-1.722-0.48-3.022-0.48v-2.995L224.369,122.732
		L224.369,122.732z"/>
</g>
<g>
	<path fill="#93A1A1" d="M249.559,153.219v-18.518c0-1.209-0.078-2.285-0.233-3.229c-0.156-0.943-0.412-1.735-0.77-2.376
		c-0.357-0.642-0.824-1.131-1.401-1.471c-0.577-0.338-1.277-0.508-2.102-0.508c-0.935,0-1.713,0.238-2.336,0.714
		c-0.622,0.477-1.122,1.113-1.497,1.91s-0.646,1.722-0.811,2.774c-0.165,1.054-0.247,2.157-0.247,3.311v10.743
		c0,0.787,0.096,1.419,0.288,1.896s0.463,0.848,0.811,1.112c0.348,0.266,0.773,0.439,1.278,0.522
		c0.503,0.082,1.066,0.123,1.689,0.123h0.165v2.995h-17.282v-2.995h0.11c0.641,0,1.227-0.041,1.759-0.123
		c0.53-0.083,0.993-0.261,1.387-0.536c0.394-0.274,0.701-0.668,0.921-1.182c0.22-0.512,0.329-1.19,0.329-2.032v-16.814
		c0-0.787-0.096-1.42-0.288-1.896c-0.192-0.477-0.467-0.848-0.824-1.113s-0.783-0.439-1.277-0.521
		c-0.495-0.083-1.054-0.124-1.676-0.124h-0.165v-2.83H239.2l0.742,4.012h0.274c0.567-1.062,1.168-1.905,1.8-2.528
		c0.632-0.622,1.305-1.099,2.02-1.429c0.714-0.329,1.47-0.54,2.267-0.632c0.797-0.091,1.635-0.137,2.514-0.137
		c2.069,0,3.837,0.37,5.303,1.112c1.465,0.742,2.536,1.946,3.215,3.613h0.494c0.567-1.062,1.186-1.905,1.854-2.528
		c0.668-0.622,1.383-1.099,2.143-1.429c0.761-0.329,1.557-0.54,2.391-0.632c0.833-0.091,1.689-0.137,2.569-0.137
		c1.446,0,2.747,0.211,3.901,0.632c1.153,0.421,2.129,1.071,2.926,1.95c0.797,0.88,1.405,2.002,1.827,3.366
		c0.421,1.364,0.632,2.999,0.632,4.904v13.05c0,0.879,0.077,1.58,0.233,2.102c0.155,0.522,0.389,0.921,0.7,1.195
		s0.705,0.458,1.182,0.55s1.025,0.137,1.648,0.137H280v2.995h-12.5v-18.518c0-2.418-0.334-4.286-1.003-5.604
		c-0.669-1.319-1.827-1.979-3.476-1.979c-0.879,0-1.63,0.216-2.253,0.646c-0.623,0.431-1.131,1.013-1.524,1.745
		c-0.395,0.732-0.683,1.589-0.865,2.568c-0.184,0.98-0.275,2.011-0.275,3.091v11.072c0,0.879,0.078,1.58,0.233,2.102
		c0.156,0.522,0.39,0.921,0.701,1.195s0.705,0.458,1.182,0.55c0.476,0.092,1.034,0.137,1.676,0.137h0.165v2.995h-12.502
		L249.559,153.219L249.559,153.219z"/>
</g>
<g>
	<path fill="#93A1A1" d="M293.057,153.769c-2.382,0-4.483-0.349-6.306-1.044c-1.822-0.696-3.348-1.704-4.574-3.022
		c-1.228-1.319-2.152-2.936-2.775-4.85c-0.622-1.913-0.934-4.098-0.934-6.553c0-2.637,0.312-4.954,0.934-6.95
		c0.623-1.997,1.529-3.663,2.721-5.001c1.19-1.337,2.651-2.34,4.382-3.008c1.73-0.669,3.704-1.003,5.921-1.003
		c2.033,0,3.864,0.288,5.495,0.865c1.63,0.577,3.013,1.434,4.148,2.568c1.135,1.137,2.005,2.547,2.609,4.231
		c0.604,1.686,0.907,3.646,0.907,5.88v2.885H287.15c0.055,1.887,0.261,3.508,0.618,4.862c0.357,1.356,0.852,2.473,1.483,3.353
		c0.632,0.879,1.401,1.529,2.309,1.95c0.906,0.422,1.945,0.632,3.118,0.632c0.971,0,1.868-0.114,2.692-0.343
		c0.824-0.229,1.57-0.55,2.239-0.962c0.668-0.412,1.254-0.897,1.758-1.456s0.921-1.158,1.25-1.8c1.008,0.55,1.512,1.466,1.512,2.747
		c0,0.807-0.22,1.571-0.659,2.295c-0.44,0.724-1.118,1.359-2.033,1.909c-0.916,0.55-2.065,0.989-3.448,1.318
		C296.605,153.604,294.962,153.769,293.057,153.769z M292.535,125.991c-1.575,0-2.825,0.779-3.75,2.336
		c-0.925,1.557-1.434,3.837-1.524,6.841h9.726c0-1.429-0.082-2.71-0.247-3.847c-0.165-1.135-0.426-2.097-0.783-2.885
		c-0.357-0.787-0.815-1.392-1.374-1.812C294.023,126.202,293.341,125.991,292.535,125.991z"/>
</g>
<g>
	<path fill="#93A1A1" d="M321.798,153.769c-2.382,0-4.483-0.349-6.306-1.044c-1.822-0.696-3.348-1.704-4.574-3.022
		c-1.228-1.319-2.152-2.936-2.775-4.85c-0.622-1.913-0.934-4.098-0.934-6.553c0-2.637,0.312-4.954,0.934-6.95
		c0.623-1.997,1.529-3.663,2.721-5.001c1.19-1.337,2.651-2.34,4.382-3.008c1.73-0.669,3.704-1.003,5.921-1.003
		c2.033,0,3.864,0.288,5.495,0.865c1.63,0.577,3.013,1.434,4.148,2.568c1.135,1.137,2.005,2.547,2.609,4.231
		c0.604,1.686,0.907,3.646,0.907,5.88v2.885H315.89c0.055,1.887,0.261,3.508,0.618,4.862c0.357,1.356,0.852,2.473,1.483,3.353
		c0.632,0.879,1.401,1.529,2.309,1.95c0.906,0.422,1.945,0.632,3.118,0.632c0.971,0,1.868-0.114,2.692-0.343
		c0.824-0.229,1.57-0.55,2.239-0.962c0.668-0.412,1.254-0.897,1.758-1.456s0.921-1.158,1.25-1.8c1.008,0.55,1.512,1.466,1.512,2.747
		c0,0.807-0.22,1.571-0.659,2.295c-0.44,0.724-1.118,1.359-2.033,1.909c-0.916,0.55-2.065,0.989-3.448,1.318
		C325.345,153.604,323.702,153.769,321.798,153.769z M321.275,125.991c-1.575,0-2.825,0.779-3.75,2.336
		c-0.925,1.557-1.434,3.837-1.524,6.841h9.726c0-1.429-0.082-2.71-0.247-3.847c-0.165-1.135-0.426-2.097-0.783-2.885
		c-0.357-0.787-0.815-1.392-1.374-1.812C322.763,126.202,322.081,125.991,321.275,125.991z"/>
</g>
<g>
	<path fill="#93A1A1" d="M349.853,149.235c0.732,0,1.433-0.051,2.102-0.151s1.296-0.225,1.882-0.371v3.654
		c-0.293,0.146-0.691,0.302-1.194,0.467c-0.505,0.165-1.091,0.316-1.759,0.453c-0.669,0.138-1.425,0.252-2.267,0.344
		c-0.843,0.092-1.759,0.138-2.747,0.138c-1.265,0-2.409-0.151-3.435-0.454c-1.026-0.302-1.896-0.806-2.61-1.511
		s-1.264-1.621-1.648-2.747c-0.385-1.127-0.577-2.514-0.577-4.163v-17.995h-4.23v-2.885c1.209,0,2.289-0.238,3.242-0.715
		c0.952-0.476,1.712-1.025,2.28-1.648c1.153-1.209,2.015-3.067,2.582-5.577h4.671v6.979h7.198v3.847h-7.198v17.419
		c0,1.703,0.288,2.949,0.865,3.736C347.587,148.842,348.535,149.235,349.853,149.235z"/>
</g>
<g>
	<path fill="#93A1A1" d="M378.757,153.219l-1.236-3.983h-0.274c-0.568,0.971-1.182,1.754-1.841,2.349
		c-0.659,0.596-1.364,1.054-2.115,1.374c-0.752,0.32-1.544,0.535-2.377,0.646c-0.834,0.109-1.689,0.165-2.568,0.165
		c-2.931,0-5.18-0.907-6.745-2.721c-1.566-1.812-2.35-4.615-2.35-8.406V130.03c0-0.824-0.073-1.492-0.22-2.006
		c-0.146-0.512-0.375-0.915-0.687-1.209c-0.312-0.292-0.71-0.494-1.195-0.604c-0.485-0.11-1.067-0.165-1.744-0.165h-0.11v-2.995
		h12.501v18.023c0,1.209,0.068,2.299,0.206,3.27s0.371,1.8,0.7,2.486c0.33,0.687,0.77,1.218,1.319,1.594
		c0.549,0.375,1.236,0.562,2.061,0.562c0.897,0,1.671-0.196,2.321-0.59c0.65-0.395,1.182-0.962,1.594-1.704
		c0.412-0.741,0.714-1.639,0.906-2.692c0.192-1.053,0.289-2.239,0.289-3.558v-10.798c0-0.824-0.11-1.474-0.33-1.95
		s-0.513-0.838-0.879-1.086c-0.367-0.247-0.797-0.402-1.291-0.467c-0.495-0.063-1.017-0.096-1.566-0.096h-0.165v-2.995h12.775
		v23.628c0,0.824,0.097,1.47,0.289,1.938c0.192,0.467,0.453,0.819,0.782,1.058c0.33,0.238,0.724,0.389,1.182,0.453
		s0.962,0.096,1.512,0.096h0.467v2.995L378.757,153.219L378.757,153.219z"/>
</g>
<g>
	<path fill="#93A1A1" d="M388.268,163.741c0.421,0,0.865-0.041,1.332-0.123c0.468-0.083,0.897-0.252,1.292-0.509
		c0.394-0.257,0.723-0.623,0.988-1.099c0.266-0.477,0.398-1.117,0.398-1.924v-30.111c0-0.861-0.096-1.548-0.288-2.061
		s-0.458-0.907-0.797-1.182s-0.742-0.458-1.209-0.55c-0.467-0.091-0.966-0.137-1.497-0.137h-0.385v-2.995h11.018l1.017,4.396h0.247
		c0.402-0.732,0.874-1.401,1.415-2.006c0.54-0.604,1.163-1.127,1.868-1.566s1.497-0.778,2.376-1.017
		c0.88-0.237,1.859-0.357,2.94-0.357c1.868,0,3.521,0.308,4.959,0.921c1.438,0.614,2.642,1.566,3.612,2.857s1.708,2.926,2.212,4.904
		c0.504,1.978,0.756,4.332,0.756,7.061c0,2.711-0.247,5.051-0.742,7.02c-0.494,1.97-1.223,3.595-2.184,4.877
		c-0.962,1.282-2.144,2.23-3.545,2.844c-1.4,0.613-3.018,0.92-4.849,0.92c-2.144,0-3.884-0.407-5.221-1.223
		c-1.337-0.814-2.408-1.909-3.214-3.283h-0.385c0.073,0.861,0.146,1.704,0.22,2.528c0.055,0.696,0.105,1.438,0.151,2.226
		c0.045,0.787,0.068,1.474,0.068,2.061v3.873c0,0.807,0.133,1.447,0.398,1.924c0.266,0.476,0.595,0.842,0.989,1.099
		s0.824,0.426,1.291,0.509c0.467,0.082,0.902,0.123,1.305,0.123h1.236v2.995h-18.435v-2.995H388.268L388.268,163.741z
		 M406.566,149.73c1.886,0,3.237-0.948,4.053-2.844c0.814-1.896,1.223-4.757,1.223-8.586c0-3.736-0.408-6.603-1.223-8.599
		c-0.815-1.997-2.148-2.995-3.998-2.995c-1.117,0-2.052,0.252-2.802,0.756c-0.752,0.504-1.347,1.245-1.786,2.225
		c-0.439,0.98-0.751,2.189-0.935,3.627c-0.183,1.438-0.274,3.082-0.274,4.932c0,1.941,0.092,3.632,0.274,5.069
		c0.184,1.438,0.495,2.633,0.935,3.585c0.439,0.953,1.025,1.662,1.758,2.13C404.523,149.496,405.449,149.73,406.566,149.73z"/>
	<path fill="#93A1A1" d="M433.23,153.769c-2.033,0-3.769-0.165-5.206-0.495c-1.438-0.329-2.61-0.787-3.517-1.373
		s-1.566-1.282-1.979-2.089c-0.412-0.806-0.618-1.676-0.618-2.609c0-0.916,0.179-1.653,0.536-2.212s0.806-0.993,1.346-1.305
		s1.113-0.518,1.718-0.618s1.153-0.151,1.648-0.151c0,1.172,0.146,2.226,0.439,3.159c0.293,0.935,0.705,1.727,1.236,2.377
		s1.168,1.149,1.909,1.497c0.742,0.349,1.57,0.522,2.486,0.522c0.971,0,1.809-0.101,2.514-0.303c0.705-0.201,1.282-0.48,1.731-0.838
		c0.448-0.357,0.783-0.77,1.003-1.236s0.329-0.957,0.329-1.47c0-0.622-0.114-1.177-0.343-1.662
		c-0.229-0.485-0.609-0.943-1.141-1.374c-0.531-0.43-1.241-0.852-2.129-1.264c-0.889-0.412-1.992-0.847-3.311-1.305
		c-1.521-0.531-2.862-1.095-4.025-1.69s-2.143-1.272-2.939-2.032c-0.797-0.761-1.401-1.631-1.813-2.61s-0.618-2.102-0.618-3.366
		c0-1.501,0.288-2.811,0.865-3.929c0.577-1.117,1.396-2.047,2.459-2.788c1.062-0.742,2.336-1.296,3.819-1.662s3.132-0.55,4.945-0.55
		c1.776,0,3.287,0.151,4.533,0.453c1.245,0.303,2.262,0.701,3.05,1.195c0.787,0.494,1.364,1.054,1.73,1.676
		c0.366,0.623,0.55,1.255,0.55,1.896c0,1.265-0.444,2.226-1.333,2.885c-0.889,0.66-2.358,0.989-4.409,0.989
		c0-1.868-0.417-3.319-1.25-4.354c-0.834-1.034-2.065-1.553-3.695-1.553c-0.604,0-1.187,0.074-1.745,0.221s-1.044,0.366-1.456,0.659
		s-0.741,0.655-0.989,1.085c-0.247,0.431-0.37,0.938-0.37,1.524c0,0.604,0.114,1.146,0.343,1.621c0.229,0.477,0.632,0.93,1.209,1.36
		s1.36,0.865,2.35,1.305c0.988,0.439,2.253,0.926,3.791,1.456c1.245,0.44,2.395,0.939,3.448,1.498s1.96,1.199,2.72,1.923
		s1.351,1.548,1.772,2.473s0.632,1.983,0.632,3.174c0,1.557-0.271,2.949-0.811,4.176c-0.541,1.228-1.333,2.262-2.377,3.104
		s-2.326,1.488-3.846,1.937C436.903,153.544,435.172,153.769,433.23,153.769z"/>
</g>
<g>
	<path fill="#D9BC2B" d="M135.514,119.135h-16.288v-2.596h0.143c0.555,0,1.063-0.039,1.524-0.119
		c0.46-0.079,0.858-0.241,1.191-0.488c0.334-0.245,0.592-0.599,0.774-1.06c0.182-0.46,0.274-1.071,0.274-1.833V98.894
		c0-0.714-0.083-1.289-0.25-1.727c-0.167-0.436-0.405-0.773-0.714-1.012c-0.31-0.238-0.679-0.392-1.107-0.464
		c-0.429-0.071-0.913-0.107-1.452-0.107h-0.143v-2.596h9.858l0.976,3.81h0.239c0.317-0.73,0.667-1.369,1.048-1.917
		s0.837-1.004,1.369-1.369c0.532-0.365,1.158-0.639,1.881-0.822c0.722-0.182,1.584-0.274,2.584-0.274
		c1.92,0,3.334,0.337,4.238,1.012c0.905,0.675,1.357,1.655,1.357,2.941c0,1.493-0.54,2.651-1.619,3.477
		c-1.08,0.826-2.604,1.238-4.572,1.238c0-0.667-0.036-1.254-0.107-1.763c-0.072-0.507-0.199-0.928-0.381-1.262
		c-0.183-0.334-0.429-0.587-0.738-0.762c-0.31-0.174-0.695-0.261-1.155-0.261c-0.572,0-1.064,0.143-1.476,0.429
		c-0.413,0.285-0.762,0.655-1.048,1.107c-0.286,0.452-0.52,0.964-0.702,1.536c-0.183,0.572-0.325,1.148-0.429,1.727
		c-0.104,0.58-0.171,1.131-0.202,1.655c-0.032,0.524-0.048,0.976-0.048,1.357v8.429c0,0.715,0.087,1.29,0.262,1.727
		c0.174,0.437,0.412,0.766,0.714,0.988s0.663,0.37,1.084,0.441c0.42,0.071,0.869,0.106,1.346,0.106h1.572v2.597
		C135.517,119.135,135.514,119.135,135.514,119.135z"/>
</g>
<g>
	<path fill="#D9BC2B" d="M167.45,105.967c0,4.588-1.076,8.009-3.226,10.263c-2.151,2.254-5.314,3.381-9.489,3.381
		c-1.953,0-3.707-0.282-5.263-0.845s-2.877-1.409-3.965-2.536c-1.088-1.127-1.921-2.549-2.5-4.263
		c-0.58-1.714-0.869-3.714-0.869-6.001c0-4.588,1.076-8.001,3.227-10.24c2.151-2.238,5.322-3.357,9.513-3.357
		c1.953,0,3.703,0.277,5.251,0.833c1.547,0.556,2.865,1.397,3.952,2.524c1.088,1.128,1.921,2.545,2.501,4.251
		C167.16,101.685,167.45,103.681,167.45,105.967z M149.71,105.967c0,1.73,0.091,3.255,0.274,4.572
		c0.182,1.318,0.476,2.421,0.881,3.311s0.933,1.559,1.584,2.012c0.651,0.452,1.444,0.678,2.381,0.678
		c0.936,0,1.727-0.226,2.369-0.678c0.643-0.452,1.167-1.122,1.572-2.012s0.694-1.993,0.869-3.311
		c0.174-1.317,0.262-2.841,0.262-4.572c0-1.747-0.091-3.274-0.274-4.584c-0.182-1.309-0.476-2.401-0.881-3.274
		c-0.405-0.872-0.933-1.527-1.584-1.964c-0.651-0.436-1.445-0.655-2.381-0.655c-0.937,0-1.73,0.219-2.381,0.655
		c-0.651,0.437-1.175,1.092-1.572,1.964c-0.397,0.873-0.683,1.965-0.857,3.274C149.797,102.693,149.71,104.221,149.71,105.967z"/>
</g>
<g>
	<path fill="#D9BC2B" d="M186.456,119.135l-1.071-3.453h-0.238c-0.492,0.842-1.024,1.52-1.595,2.036s-1.183,0.913-1.834,1.191
		c-0.651,0.277-1.337,0.465-2.06,0.56c-0.723,0.095-1.464,0.143-2.226,0.143c-2.54,0-4.488-0.786-5.846-2.358
		c-1.357-1.572-2.036-4-2.036-7.286v-10.93c0-0.715-0.064-1.294-0.191-1.739c-0.127-0.444-0.326-0.793-0.595-1.047
		c-0.27-0.254-0.616-0.429-1.036-0.525c-0.42-0.095-0.925-0.143-1.512-0.143h-0.095v-2.596h10.835v15.622
		c0,1.047,0.059,1.992,0.179,2.834c0.119,0.841,0.321,1.559,0.607,2.155c0.286,0.595,0.667,1.056,1.143,1.381
		c0.477,0.326,1.072,0.488,1.786,0.488c0.778,0,1.449-0.171,2.012-0.512c0.563-0.341,1.024-0.833,1.381-1.477
		c0.357-0.642,0.619-1.421,0.786-2.334c0.167-0.912,0.25-1.94,0.25-3.083v-9.358c0-0.715-0.095-1.278-0.286-1.69
		c-0.191-0.413-0.445-0.727-0.762-0.941c-0.318-0.215-0.69-0.35-1.119-0.405c-0.429-0.056-0.881-0.084-1.357-0.084h-0.143v-2.596
		h11.073v20.479c0,0.715,0.083,1.273,0.25,1.679c0.167,0.405,0.393,0.71,0.678,0.916c0.286,0.207,0.627,0.337,1.024,0.393
		s0.833,0.083,1.31,0.083h0.405v2.596h-9.717L186.456,119.135L186.456,119.135z"/>
	<path fill="#D9BC2B" d="M217.671,97.038c0-0.587-0.226-0.977-0.678-1.167c-0.452-0.191-1.06-0.286-1.822-0.286h-0.143v-2.596
		h11.264v2.596h-0.429c-0.477,0-0.901,0.044-1.274,0.131s-0.746,0.246-1.119,0.476s-0.758,0.547-1.155,0.952
		s-0.858,0.926-1.381,1.56l-5.025,6.143l7.168,9.12c0.746,0.937,1.432,1.599,2.061,1.989c0.626,0.389,1.241,0.582,1.844,0.582h0.643
		v2.596h-15.526v-2.596h0.262c1.952,0,2.929-0.531,2.929-1.594c0-0.191-0.024-0.381-0.071-0.572
		c-0.048-0.19-0.135-0.412-0.262-0.667c-0.127-0.254-0.314-0.551-0.56-0.892c-0.247-0.341-0.568-0.751-0.964-1.227l-2.786-3.381
		l-3.405,4.238c-0.302,0.397-0.548,0.802-0.738,1.214c-0.191,0.413-0.286,0.826-0.286,1.238c0,0.541,0.23,0.949,0.69,1.227
		s1.239,0.416,2.334,0.416h0.143v2.596h-12.382v-2.596h0.429c0.587,0,1.103-0.051,1.548-0.154c0.444-0.104,0.861-0.275,1.25-0.512
		c0.389-0.239,0.782-0.556,1.179-0.953c0.397-0.396,0.841-0.896,1.334-1.499l6.143-7.406l-6.143-7.858
		c-0.683-0.857-1.366-1.499-2.048-1.928c-0.683-0.429-1.397-0.643-2.143-0.643h-0.643v-2.596h15.335v2.596h-0.167
		c-0.556,0-1.012,0.036-1.369,0.107c-0.357,0.071-0.639,0.17-0.845,0.297s-0.349,0.278-0.429,0.452
		c-0.08,0.175-0.119,0.357-0.119,0.548c0,0.349,0.087,0.686,0.262,1.012c0.174,0.325,0.46,0.734,0.857,1.226l2.715,3.333l2.31-2.786
		c0.381-0.491,0.679-0.96,0.893-1.404C217.564,97.926,217.671,97.482,217.671,97.038z"/>
</g>
<circle fill="#DC322E" cx="254.555" cy="41.105" r="13.727"/>
<circle fill="#D9BC2B" cx="285.828" cy="41.105" r="13.727"/>
<circle fill="#6C71C4" cx="317.102" cy="41.105" r="13.727"/>
<circle fill="#D33682" cx="254.555" cy="71.105" r="13.727"/>
<circle fill="#B58900" cx="285.828" cy="71.105" r="13.727"/>
<circle fill="#475B62" cx="317.102" cy="71.105" r="13.727"/>
<circle fill="#063642" cx="254.555" cy="101.105" r="13.727"/>
<circle fill="#B39664" cx="285.828" cy="101.105" r="13.727"/>
<circle fill="#859900" cx="317.102" cy="101.105" r="13.727"/>
</svg>
